<?xml version="1.0" encoding="UTF-8" standalone="no"?>
<svg
   id="Layer_1"
   data-name="Layer 1"
   viewBox="0 0 207.36 433.2"
   version="1.1"
   sodipodi:docname="glyph.svg"
   inkscape:version="1.2.2 (732a01da63, 2022-12-09)"
   xmlns:inkscape="http://www.inkscape.org/namespaces/inkscape"
   xmlns:sodipodi="http://sodipodi.sourceforge.net/DTD/sodipodi-0.dtd"
   xmlns="http://www.w3.org/2000/svg"
   xmlns:svg="http://www.w3.org/2000/svg">
  <sodipodi:namedview
     id="namedview173"
     pagecolor="#505050"
     bordercolor="#ffffff"
     borderopacity="1"
     inkscape:showpageshadow="0"
     inkscape:pageopacity="0"
     inkscape:pagecheckerboard="1"
     inkscape:deskcolor="#505050"
     showgrid="false"
     inkscape:zoom="2.3707294"
     inkscape:cx="36.486661"
     inkscape:cy="217.02182"
     inkscape:window-width="2560"
     inkscape:window-height="1364"
     inkscape:window-x="1272"
     inkscape:window-y="-2"
     inkscape:window-maximized="0"
     inkscape:current-layer="Layer_1" />
  <defs
     id="defs163">
    <style
       id="style161">
            .cls-1 {
                fill: #fff;
            }

            .cls-1,
            .cls-2,
            .cls-3,
            .cls-4,
            .cls-5 {
                fill-rule: evenodd;
            }

            .cls-2,
            .cls-4 {
                fill: none;
                stroke: #fff;
                stroke-miterlimit: 10;
                stroke-width: 6px;
            }

            .cls-3 {
                fill: #e30613;
            }

            .cls-4 {
                stroke-linecap: round;
            }
        </style>
  </defs>
  <path
     id="Base"
     class="cls-5"
     d="M28.56,0H178.8c15.77,0,28.56,12.79,28.56,28.56V404.64c0,15.77-12.79,28.56-28.56,28.56H28.56c-15.77,0-28.56-12.79-28.56-28.56V28.56C0,12.79,12.79,0,28.56,0Z" />
  <path
     id="Camera"
     class="cls-2"
     d="M57.6,35.52s-.2-21.12-21.12-21.12S14.64,34.08,14.64,34.08v43.2s1.52,20.16,21.36,20.16,21.6-18.35,21.6-19.2v-14.88" />
  <path
     id="Diagonal"
     class="cls-4"
     d="M140.16,72.48l37.92-45.36" />
  <path
     id="RecordingLED"
     class="cls-3"
     d="M182.54,70.12c1.12,0,2.02,.9,2.02,2.02s-.9,2.02-2.02,2.02-2.02-.9-2.02-2.02,.9-2.02,2.02-2.02Z" />
  <path
     id="Center"
     class="cls-4"
     d="m 189.12,143.52 c 0,0 -30.24,-40.32 -84.48,-40.32 -54.24,0 -90.72,38.02 -90.72,47.04 v 64.56 64.56 c 0,2.27 27.99,46.8 90,46.8 62.01,0 89.28,-44.42 89.28,-47.52 v -60.48"
     sodipodi:nodetypes="csscsssc"
     style="display:none;opacity:0"
     inkscape:label="CenterOriginal" />
  <path
     id="CenterBottomRight"
     class="cls-4"
     d="m 103.92,326.16 c 62.01,0 89.28,-44.42 89.28,-47.52 v -60.48"
     sodipodi:nodetypes="csc"
     style="display:inline;opacity:1"
     inkscape:label="CenterBottomRight" />
  <path
     id="CenterBottomLeft"
     class="cls-4"
     d="m 13.92,214.8 v 64.56 c 0,2.27 27.99,46.8 90,46.8"
     sodipodi:nodetypes="csc"
     style="display:inline;opacity:1"
     inkscape:label="CenterBottomLeft" />
  <path
     id="CenterTopRight"
     class="cls-4"
     d="m 189.12,143.52 c 0,0 -30.24,-40.32 -84.48,-40.32"
     sodipodi:nodetypes="cc"
     style="display:inline;opacity:1"
     inkscape:label="CenterTopRight" />
  <path
     id="CenterTopLeft"
     class="cls-4"
     d="m 104.64,103.2 c -54.24,0 -90.72,38.02 -90.72,47.04 m 0,0 v 64.56"
     sodipodi:nodetypes="cccc"
     style="display:inline;opacity:1"
     inkscape:label="CenterTopLeft" />
  <path
     id="Line"
     class="cls-4"
     d="M103.2,351.84v51.84" />
  <path
     id="Dot"
     class="cls-1"
     d="M103.32,415.2c2.05,0,3.72,1.67,3.72,3.72s-1.67,3.72-3.72,3.72-3.72-1.67-3.72-3.72,1.67-3.72,3.72-3.72Z" />
</svg>
